<svg width="40" height="40" viewBox="0 0 40 40" fill="none" xmlns="http://www.w3.org/2000/svg">
<g id="email icon">
<path id="Vector" d="M12.7368 12.4458H25.983C26.7937 12.4458 27.5712 12.7663 28.1445 13.3369C28.7178 13.9074 29.0398 14.6812 29.0398 15.4881V24.6149C29.0398 25.4217 28.7178 26.1955 28.1445 26.7661C27.5712 27.3366 26.7937 27.6571 25.983 27.6571H12.7368C11.926 27.6571 11.1485 27.3366 10.5753 26.7661C10.002 26.1955 9.67993 25.4217 9.67993 24.6149V15.4881C9.67993 14.6812 10.002 13.9074 10.5753 13.3369C11.1485 12.7663 11.926 12.4458 12.7368 12.4458ZM12.7368 13.4599C12.2273 13.4599 11.7789 13.6323 11.4325 13.9365L19.3599 19.0374L27.2872 13.9365C26.9408 13.6323 26.4925 13.4599 25.983 13.4599H12.7368ZM19.3599 20.2644L10.8313 14.7579C10.7498 14.981 10.6989 15.2345 10.6989 15.4881V24.6149C10.6989 25.1528 10.9136 25.6686 11.2958 26.049C11.6779 26.4294 12.1963 26.643 12.7368 26.643H25.983C26.5235 26.643 27.0418 26.4294 27.424 26.049C27.8062 25.6686 28.0209 25.1528 28.0209 24.6149V15.4881C28.0209 15.2345 27.9699 14.981 27.8884 14.7579L19.3599 20.2644Z" fill="white"/>
<circle id="Ellipse 21" cx="19.6692" cy="19.6692" r="19.1692" stroke="white"/>
</g>
</svg>
