<svg width="24" height="24" viewBox="0 0 24 24" fill="none" xmlns="http://www.w3.org/2000/svg">
<g id="Frame 24484">
<g id="Group">
<g id="Group_2">
<path id="Vector" d="M14.1851 15.1475L14.1865 15.1482C14.2209 15.166 14.2562 15.1841 14.2922 15.2026C14.3419 15.228 14.3927 15.2541 14.4436 15.2808L15.7107 14.0196L15.7108 14.0195M14.1851 15.1475L18.6206 14.0945C18.2156 13.6734 17.7271 13.4483 17.2093 13.4483C16.6957 13.4483 16.203 13.6693 15.7813 14.0904L15.7108 14.0195M14.1851 15.1475C14.0339 15.072 13.8965 15.0033 13.7802 14.9313C12.555 14.1542 11.4399 13.1406 10.3686 11.8263C9.87095 11.1981 9.53241 10.6683 9.2846 10.1372C9.57576 9.86825 9.84913 9.59125 10.1134 9.32343C10.1434 9.29308 10.1732 9.26285 10.2029 9.23276C10.2617 9.17412 10.3203 9.11448 10.3786 9.05522L10.3787 9.05518C10.4372 8.99572 10.4953 8.93662 10.5534 8.87862C11.0074 8.4253 11.2404 7.89846 11.2404 7.36527C11.2404 6.83209 11.0074 6.30524 10.5534 5.85193L9.41354 4.7137C9.2839 4.58425 9.15145 4.45197 9.02748 4.31993L9.02749 4.31993L9.02638 4.31879C8.77601 4.06044 8.51177 3.79235 8.23865 3.54053C7.81763 3.125 7.30931 2.9 6.77085 2.9C6.23213 2.9 5.71546 3.1252 5.28202 3.5407L5.282 3.54068L5.28056 3.54213L5.27638 3.5463L5.27221 3.55046L5.2719 3.55078L3.85258 4.98054C3.85253 4.98059 3.85247 4.98065 3.85242 4.9807C3.30147 5.53092 2.98645 6.2032 2.91757 6.98122L2.91757 6.98122L2.91752 6.98183C2.81544 8.22203 3.18116 9.37323 3.45788 10.1185C4.13893 11.9529 5.15579 13.6512 6.66896 15.4677L6.66918 15.468C8.50688 17.6591 10.7185 19.3899 13.2452 20.6095L13.2458 20.6098C14.2086 21.0654 15.5046 21.6103 16.9566 21.7033L16.9582 21.7034C17.0456 21.7075 17.1398 21.7118 17.226 21.7118C18.2173 21.7118 19.0543 21.3549 19.7087 20.6456L19.7183 20.6352L19.7196 20.6326C19.7211 20.631 19.7227 20.6292 19.7244 20.6272C19.7271 20.624 19.7302 20.6201 19.7334 20.6154C19.9296 20.3788 20.1538 20.1623 20.3946 19.9297C20.4136 19.9114 20.4327 19.893 20.4519 19.8745C20.6318 19.7031 20.8166 19.5228 20.9974 19.3338C21.4258 18.8888 21.6559 18.3645 21.6559 17.8219C21.6559 17.2746 21.4212 16.7539 20.9834 16.3209C20.9833 16.3209 20.9833 16.3208 20.9832 16.3207L18.6927 14.0252C18.6924 14.025 18.6922 14.0248 18.692 14.0246M14.1851 15.1475L18.692 14.0246M15.7108 14.0195C16.148 13.5829 16.6651 13.3483 17.2093 13.3483C17.7578 13.3483 18.2711 13.5873 18.692 14.0246M15.7108 14.0195L18.692 14.0246M19.5365 18.9215C19.2652 19.1799 18.9873 19.4531 18.7255 19.7607C18.3239 20.1887 17.8543 20.3903 17.2302 20.3903C17.1669 20.3903 17.1035 20.3902 17.0448 20.3863L17.0445 20.3863C15.8245 20.3084 14.6866 19.832 13.8245 19.4203C11.4744 18.2842 9.41064 16.6713 7.69522 14.6267C6.27716 12.92 5.33171 11.3453 4.70594 9.65699L4.70584 9.65671C4.32072 8.62708 4.18319 7.8336 4.24418 7.09012C4.28396 6.62584 4.46162 6.24353 4.7914 5.91423L6.21406 4.49363C6.40683 4.3133 6.60029 4.22571 6.7792 4.22571C7.00218 4.22571 7.19077 4.36114 7.31815 4.48833L7.33068 4.50084L7.33064 4.50088L7.33311 4.50319C7.58588 4.73904 7.8266 4.98352 8.08111 5.246L8.08113 5.24601C8.14617 5.31306 8.21222 5.38005 8.27846 5.44724L8.28002 5.44882C8.34583 5.51558 8.41185 5.58253 8.47782 5.65047L8.47782 5.65048L8.4789 5.65157L9.61878 6.78979C9.83058 7.00128 9.92139 7.18992 9.92139 7.36527C9.92139 7.54062 9.83058 7.72926 9.61878 7.94075C9.57736 7.98211 9.53687 8.02302 9.49678 8.06352C9.41798 8.14313 9.34072 8.22118 9.26095 8.29808L9.26092 8.29805L9.25887 8.30015C8.90853 8.65831 8.57636 8.98995 8.21564 9.31288L8.21554 9.31277L8.21223 9.31608C8.21215 9.31614 8.21205 9.31623 8.21193 9.31633L8.20965 9.31821L8.20531 9.32184C8.20091 9.32561 8.19232 9.33312 8.18374 9.34458C7.99416 9.53661 7.912 9.7318 7.89073 9.91528C7.86951 10.0983 7.90995 10.2613 7.949 10.3848L7.94898 10.3848L7.94949 10.3863L7.96201 10.4239L7.96178 10.4239L7.96445 10.4304C8.26544 11.1585 8.68855 11.8419 9.327 12.6513L9.32645 12.6518L9.33486 12.6602L9.33538 12.6607C10.4926 14.0834 11.7145 15.1947 13.0639 16.0469C13.2394 16.158 13.4186 16.2475 13.5845 16.3303L13.5863 16.3312C13.7377 16.4068 13.8753 16.4756 13.9917 16.5477L13.9915 16.5481L13.9997 16.5522C14.003 16.5538 14.0073 16.5564 14.0165 16.5621L14.0176 16.5629C14.0252 16.5676 14.0371 16.575 14.0498 16.5814C14.2038 16.6582 14.3526 16.6961 14.5078 16.6961C14.8958 16.6961 15.1379 16.4544 15.212 16.3804L15.2132 16.3792L16.6411 14.9533C16.7786 14.816 16.9794 14.6698 17.201 14.6698C17.4182 14.6698 17.6063 14.808 17.7284 14.9416L17.7283 14.9417L17.7315 14.945L17.7357 14.9491L17.7399 14.9533L17.8106 14.8825L17.7399 14.9533L20.0405 17.2506L20.0409 17.2509C20.2444 17.4521 20.3338 17.6439 20.3343 17.8263C20.3347 18.0063 20.2485 18.1993 20.0528 18.4056C20.0461 18.4106 20.0392 18.417 20.0329 18.4253C20.0318 18.4268 20.0304 18.4287 20.029 18.4308C19.9014 18.5672 19.7712 18.6935 19.6322 18.8285C19.6008 18.859 19.5689 18.89 19.5365 18.9215ZM19.5365 18.9215C19.5367 18.9214 19.5368 18.9212 19.537 18.9211L19.6059 18.9934L19.5362 18.9219C19.5363 18.9218 19.5364 18.9217 19.5365 18.9215ZM20.1805 18.4134C20.1604 18.4368 20.1391 18.4601 20.1167 18.4835L20.1154 18.4823V18.3867C20.1235 18.3869 20.1326 18.3882 20.1422 18.3912C20.1549 18.3952 20.1685 18.4023 20.1805 18.4134Z" fill="#F34509" stroke="#F34509" stroke-width="0.2"/>
</g>
</g>
</g>
</svg>
