<svg width="24" height="24" viewBox="0 0 24 24" fill="none" xmlns="http://www.w3.org/2000/svg">
<g id="Frame 24484">
<g id="Group 2405">
<g id="Group">
<path id="Vector" fill-rule="evenodd" clip-rule="evenodd" d="M8.75842 7.99526C8.75842 8.58669 8.75842 9.15465 8.75842 9.73377C10.5124 9.73377 12.2525 9.73377 14.0141 9.73377C14.0141 9.15559 14.0141 8.58386 14.0141 7.99518C14.0884 7.99518 14.1414 7.99518 14.1943 7.99518C14.6512 7.99518 15.1081 7.99511 15.565 7.99518C15.7674 7.99526 15.7675 7.99546 15.7676 8.19115C15.7677 8.70208 15.7697 9.21301 15.7657 9.72386C15.765 9.81658 15.7941 9.87172 15.8693 9.93008C17.4397 11.1482 18.8502 12.521 19.9237 14.2079C20.5249 15.1524 20.9553 16.1697 21.0007 17.3044C21.032 18.0888 21.0515 18.8795 20.9892 19.6603C20.8853 20.9628 19.7586 21.9671 18.4515 21.9987C18.3336 22.0015 18.2157 22.0003 18.0978 22.0003C13.5487 22.0003 8.99966 22.0009 4.45055 22C3.33358 21.9997 2.372 21.3801 1.96506 20.3794C1.86657 20.1371 1.78349 19.8698 1.77755 19.6121C1.75833 18.7779 1.73727 17.9401 1.79308 17.1088C1.8707 15.952 2.35817 14.9287 2.99793 13.9811C4.06107 12.4063 5.4012 11.0936 6.89847 9.93555C6.9834 9.86983 7.01249 9.80612 7.01158 9.70358C7.00718 9.18778 7.01241 8.67189 7.00741 8.15613C7.00631 8.04046 7.03096 7.99082 7.16018 7.99247C7.68507 7.99911 8.21011 7.99526 8.75842 7.99526ZM11.3784 20.2465C13.7023 20.2465 16.0262 20.2472 18.35 20.2461C18.902 20.2458 19.264 19.8827 19.2661 19.3312C19.2677 18.9087 19.2708 18.4862 19.2649 18.0637C19.2609 17.7695 19.2654 17.4723 19.2263 17.1819C19.1294 16.4626 18.8207 15.8194 18.449 15.2074C17.5696 13.7598 16.3961 12.5815 15.0643 11.5519C15.0124 11.5117 14.9286 11.497 14.8596 11.497C12.5455 11.4942 10.2315 11.4937 7.91742 11.4984C7.83281 11.4986 7.73058 11.5333 7.66656 11.5874C7.19795 11.9835 6.72004 12.371 6.27714 12.7948C5.34842 13.6832 4.54853 14.6747 3.98348 15.8392C3.69536 16.433 3.49884 17.0506 3.50784 17.7216C3.51468 18.2324 3.50914 18.7435 3.50922 19.2544C3.50934 19.9097 3.84384 20.2465 4.49524 20.2465C6.7896 20.2467 9.084 20.2466 11.3784 20.2465Z" fill="#F34509"/>
<path id="Vector_2" fill-rule="evenodd" clip-rule="evenodd" d="M22.7562 7.99645C22.6887 7.99645 22.6356 7.99645 22.5824 7.99645C20.9463 7.99645 19.3102 7.99425 17.6741 8.00002C17.5239 8.00053 17.4843 7.95408 17.4767 7.8111C17.42 6.73511 17.1844 5.70138 16.7094 4.72978C16.4206 4.13906 16.0372 3.62342 15.4873 3.24415C15.09 2.97017 14.6482 2.8514 14.1719 2.82503C12.3058 2.72166 10.4404 2.72638 8.57413 2.82522C7.70774 2.87109 7.05941 3.28962 6.54584 3.95383C6.00889 4.64823 5.70328 5.45106 5.51871 6.29693C5.40815 6.80365 5.35604 7.3237 5.29103 7.83947C5.27488 7.9676 5.23381 7.99924 5.1104 7.999C3.46449 7.99515 1.81854 7.99464 0.172671 7.99963C0.0312998 8.00006 0.00229533 7.95274 0.00319929 7.82281C0.00854442 7.08097 0.0235969 6.33851 0.00162685 5.59727C-0.0312693 4.48823 0.436823 3.61253 1.21509 2.87349C1.68652 2.42587 2.24022 2.12257 2.87028 1.94905C4.46796 1.50918 6.09744 1.2622 7.74634 1.13742C9.8059 0.981583 11.8668 0.958119 13.9307 1.06789C15.9723 1.1764 17.993 1.41022 19.9644 1.97106C21.1517 2.30879 21.9784 3.08014 22.5078 4.18021C22.6779 4.53362 22.7632 4.91352 22.7648 5.30721C22.7682 6.16212 22.7664 7.01703 22.7662 7.87193C22.7662 7.90581 22.7609 7.93961 22.7562 7.99645ZM17.9438 3.30283C18.1681 3.77835 18.4251 4.23398 18.5999 4.71921C18.7746 5.20412 18.8672 5.71867 18.9981 6.22925C19.6461 6.22925 20.3245 6.22925 21.0165 6.22925C21.0165 5.98113 21.0089 5.74603 21.0183 5.51155C21.0319 5.17292 20.9305 4.87037 20.7414 4.59788C20.418 4.13207 20.0001 3.78817 19.4393 3.64649C19.0587 3.55035 18.6762 3.462 18.2939 3.37267C18.1712 3.34394 18.0465 3.32311 17.9438 3.30283ZM4.86381 3.32499C4.85544 3.31077 4.84707 3.29654 4.8387 3.28231C4.31531 3.41052 3.78752 3.52339 3.26935 3.67011C2.16094 3.98386 1.51827 5.09985 1.7825 6.23448C1.82294 6.23711 1.86602 6.2423 1.90909 6.24234C2.49855 6.24293 3.08805 6.24029 3.67747 6.24505C3.78657 6.24591 3.83028 6.21789 3.84301 6.1025C3.95133 5.12281 4.29106 4.22577 4.82479 3.39982C4.84004 3.37628 4.85092 3.34999 4.86381 3.32499Z" fill="#F34509"/>
<path id="Vector_3" fill-rule="evenodd" clip-rule="evenodd" d="M14.0204 14.9872C14.0204 14.4044 14.0204 13.8373 14.0204 13.2588C14.6021 13.2588 15.1765 13.2588 15.7586 13.2588C15.7586 13.837 15.7586 14.4077 15.7586 14.9872C15.1781 14.9872 14.6065 14.9872 14.0204 14.9872Z" fill="#F34509"/>
<path id="Vector_4" fill-rule="evenodd" clip-rule="evenodd" d="M14.0284 16.7578C14.6053 16.7578 15.1774 16.7578 15.7585 16.7578C15.7585 17.3352 15.7585 17.9031 15.7585 18.4846C15.1866 18.4846 14.6151 18.4846 14.0284 18.4846C14.0284 17.9147 14.0284 17.3399 14.0284 16.7578Z" fill="#F34509"/>
<path id="Vector_5" fill-rule="evenodd" clip-rule="evenodd" d="M7.02203 13.2539C7.60163 13.2539 8.16943 13.2539 8.7482 13.2539C8.7482 13.8303 8.7482 14.4018 8.7482 14.9847C8.17713 14.9847 7.60587 14.9847 7.02203 14.9847C7.02203 14.4127 7.02203 13.8417 7.02203 13.2539Z" fill="#F34509"/>
<path id="Vector_6" fill-rule="evenodd" clip-rule="evenodd" d="M10.5237 13.2566C11.1058 13.2566 11.6769 13.2566 12.2558 13.2566C12.2558 13.8363 12.2558 14.4073 12.2558 14.9874C11.6775 14.9874 11.1065 14.9874 10.5237 14.9874C10.5237 14.4127 10.5237 13.8419 10.5237 13.2566Z" fill="#F34509"/>
<path id="Vector_7" fill-rule="evenodd" clip-rule="evenodd" d="M7.00953 18.4872C7.00953 18.1662 7.00949 17.8578 7.00953 17.5494C7.00957 17.3187 7.00611 17.088 7.0135 16.8575C7.01468 16.8207 7.06405 16.7541 7.09175 16.7538C7.64046 16.7477 8.18928 16.7492 8.74851 16.7492C8.74851 17.3329 8.74851 17.9045 8.74851 18.4872C8.17642 18.4872 7.60552 18.4872 7.00953 18.4872Z" fill="#F34509"/>
<path id="Vector_8" fill-rule="evenodd" clip-rule="evenodd" d="M12.255 18.4902C11.6684 18.4902 11.1003 18.4902 10.5221 18.4902C10.5221 17.9138 10.5221 17.346 10.5221 16.7634C11.0958 16.7634 11.6709 16.7634 12.255 16.7634C12.255 17.3376 12.255 17.9093 12.255 18.4902Z" fill="#F34509"/>
</g>
</g>
</g>
</svg>
