<svg width="40" height="40" viewBox="0 0 40 40" fill="none" xmlns="http://www.w3.org/2000/svg">
<g id="linkedin icon">
<g id="Group 1360">
<path id="XMLID_19_" d="M15.3942 16.5139V16.1639H15.0442H11.1723H10.8223V16.5139V29.0225V29.3725H11.1723H15.0442H15.3942V29.0225V16.5139Z" stroke="#E5E5E5" stroke-width="0.7"/>
<path id="XMLID_17_" d="M15.7298 12.5675C15.7298 14.0323 14.551 15.2264 13.0901 15.2264C11.6288 15.2264 10.4499 14.0324 10.4503 12.5675H15.7298ZM15.7298 12.5675C15.7298 11.1025 14.5509 9.90928 13.0901 9.90928M15.7298 12.5675L13.0901 9.90928M13.0901 9.90928C11.6289 9.90928 10.4504 11.102 10.4503 12.5674L13.0901 9.90928Z" stroke="#E5E5E5" stroke-width="0.7"/>
<path id="XMLID_15_" d="M25.6999 29.022H25.3499V29.372H25.6999H29.5535H29.9035V29.022H29.5535L29.9035 29.022V29.0218V29.0216V29.0212V29.0207V29.0202V29.0195V29.0187V29.0178V29.0169V29.0158V29.0146V29.0133V29.0119V29.0104V29.0088V29.0071V29.0054V29.0035V29.0015V28.9994V28.9972V28.9949V28.9925V28.99V28.9875V28.9848V28.982V28.9791V28.9761V28.9731V28.9699V28.9667V28.9633V28.9598V28.9563V28.9526V28.9489V28.9451V28.9411V28.9371V28.933V28.9288V28.9245V28.9201V28.9156V28.911V28.9063V28.9016V28.8967V28.8918V28.8867V28.8816V28.8764V28.871V28.8656V28.8601V28.8546V28.8489V28.8431V28.8373V28.8313V28.8253V28.8192V28.813V28.8067V28.8003V28.7938V28.7873V28.7806V28.7739V28.7671V28.7602V28.7532V28.7461V28.7389V28.7317V28.7244V28.717V28.7095V28.7019V28.6942V28.6865V28.6786V28.6707V28.6627V28.6546V28.6465V28.6382V28.6299V28.6215V28.613V28.6045V28.5958V28.5871V28.5783V28.5694V28.5604V28.5514V28.5423V28.5331V28.5238V28.5144V28.505V28.4955V28.4859V28.4762V28.4664V28.4566V28.4467V28.4367V28.4267V28.4166V28.4064V28.3961V28.3857V28.3753V28.3648V28.3542V28.3436V28.3328V28.322V28.3112V28.3002V28.2892V28.2781V28.267V28.2557V28.2444V28.2331V28.2216V28.2101V28.1985V28.1869V28.1751V28.1633V28.1515V28.1395V28.1275V28.1155V28.1033V28.0911V28.0788V28.0665V28.0541V28.0416V28.0291V28.0164V28.0038V27.991V27.9782V27.9653V27.9524V27.9394V27.9263V27.9132V27.9V27.8867V27.8734V27.86V27.8466V27.833V27.8195V27.8058V27.7921V27.7784V27.7645V27.7506V27.7367V27.7227V27.7086V27.6945V27.6803V27.666V27.6517V27.6374V27.6229V27.6084V27.5939V27.5793V27.5646V27.5499V27.5351V27.5203V27.5054V27.4905V27.4755V27.4604V27.4453V27.4301V27.4149V27.3996V27.3843V27.3689V27.3534V27.3379V27.3224V27.3068V27.2911V27.2754V27.2596V27.2438V27.2279V27.212V27.196V27.18V27.1639V27.1478V27.1316V27.1154V27.0991V27.0827V27.0664V27.0499V27.0334V27.0169V27.0003V26.9837V26.967V26.9503V26.9335V26.9167V26.8999V26.8829V26.866V26.849V26.8319V26.8148V26.7977V26.7805V26.7633V26.746V26.7287V26.7113V26.6939V26.6764V26.6589V26.6414V26.6238V26.6062V26.5885V26.5708V26.5531V26.5353V26.5174V26.4995V26.4816V26.4637V26.4457V26.4276V26.4095V26.3914V26.3733V26.3551V26.3368V26.3186V26.3002V26.2819V26.2635V26.2451V26.2266V26.2081V26.1896V26.171V26.1524V26.1337V26.1151V26.0963V26.0776V26.0588V26.04V26.0211V26.0022V25.9833V25.9643V25.9453V25.9263V25.9072V25.8882V25.869V25.8499V25.8307V25.8115V25.7922V25.7729V25.7536V25.7343V25.7149V25.6955V25.6761V25.6566V25.6371V25.6176V25.598V25.5785V25.5588V25.5392V25.5195V25.4999V25.4801V25.4604V25.4406V25.4208V25.401V25.3811V25.3613V25.3414V25.3214V25.3015V25.2815V25.2615V25.2415V25.2214V25.2014V25.1813V25.1612V25.141V25.1209V25.1007V25.0805V25.0602V25.04V25.0197V24.9994V24.9791V24.9588V24.9384V24.918V24.8976V24.8772V24.8568V24.8363V24.8159V24.7954V24.7749V24.7543V24.7338V24.7132V24.6927V24.6721V24.6514V24.6308V24.6102V24.5895V24.5688V24.5482V24.5274V24.5067V24.486V24.4652V24.4445V24.4237V24.4029V24.3821V24.3613V24.3405V24.3196V24.2988V24.2779V24.257V24.2361V24.2152V24.1943V24.1734V24.1525V24.1315V24.1106V24.0896V24.0686V24.0477V24.0267V24.0057V23.9847V23.9636V23.9426V23.9216V23.9006V23.8795V23.8585V23.8374V23.8163V23.7953V23.7742V23.7531V23.732V23.7109V23.6898V23.6687V23.6476V23.6265V23.6054V23.5843V23.5632V23.5421V23.5209V23.4998V23.4787V23.4576V23.4364V23.4153V23.3942V23.373V23.3519V23.3307V23.3096V23.2885V23.2673V23.2462V23.2251V23.2039V23.1828V23.1617V23.1405V23.1194V23.0983V23.0772V23.0561V23.0349V23.0138V22.9927V22.9716V22.9505V22.9294V22.9084V22.8873V22.8662V22.8451V22.8241V22.803V22.7819V22.7609V22.7399V22.7188V22.6978V22.6768V22.6558V22.6348V22.6138V22.5928V22.5718V22.5508V22.5299V22.5089V22.488V22.4671V22.4462V22.4253V22.4044V22.3835V22.3626V22.3418V22.3209V22.3001V22.2792V22.2584V22.2376V22.2169V22.1961V22.1753V22.1546V22.1339V22.1132V22.0925V22.0718V22.0511V22.0305V22.0098V21.9892V21.9686V21.948V21.9275V21.9069V21.8864V21.8659V21.8454V21.8249V21.8044V21.784V21.7636V21.7432V21.7228V21.7024V21.6821V21.6617V21.6414V21.6212V21.6009V21.5807V21.5604V21.5402V21.5201V21.4999V21.4798V21.4597V21.4396V21.4196V21.3995V21.3795V21.3595V21.3396V21.3196V21.2997V21.2798V21.26V21.2401V21.2203V21.2005V21.1808V21.1611V21.1414V21.1217V21.102C29.9035 19.3611 29.4089 18.0211 28.5225 17.1155C27.6359 16.2096 26.3994 15.7816 25.0022 15.7816C23.5765 15.7816 22.5567 16.3391 21.8964 16.8978C21.781 16.9955 21.6765 17.0931 21.5827 17.1879V16.5135V16.1635H21.2327H17.5185H17.1685V16.5135V29.022V29.372H17.5185H21.2327C21.4747 29.2749 21.5825 29.0336 21.5826 29.0297L21.5827 29.0257L21.5827 29.0231L21.5827 29.0196L21.5827 29.0091L21.5828 28.9697L21.5828 28.8191L21.5829 28.2671L21.5831 26.4617L21.5831 22.4559C21.5831 21.6245 21.7751 21.0132 22.1018 20.6157C22.4196 20.229 22.902 19.9997 23.5922 19.9997C24.2117 19.9997 24.6251 20.2124 24.8975 20.5843C25.1839 20.9753 25.3499 21.5905 25.3499 22.4559V22.4665V22.4772V22.4879V22.4987V22.5095V22.5205V22.5315V22.5425V22.5536V22.5648V22.5761V22.5874V22.5987V22.6102V22.6217V22.6333V22.6449V22.6566V22.6683V22.6801V22.692V22.7039V22.7159V22.728V22.7401V22.7523V22.7645V22.7768V22.7891V22.8015V22.814V22.8265V22.8391V22.8517V22.8644V22.8772V22.89V22.9028V22.9157V22.9287V22.9417V22.9548V22.9679V22.9811V22.9943V23.0076V23.021V23.0343V23.0478V23.0613V23.0748V23.0884V23.102V23.1157V23.1295V23.1433V23.1571V23.171V23.1849V23.1989V23.2129V23.227V23.2411V23.2553V23.2695V23.2837V23.298V23.3124V23.3268V23.3412V23.3557V23.3702V23.3848V23.3994V23.414V23.4287V23.4435V23.4582V23.4731V23.4879V23.5028V23.5177V23.5327V23.5477V23.5628V23.5779V23.593V23.6082V23.6234V23.6386V23.6539V23.6692V23.6846V23.6999V23.7154V23.7308V23.7463V23.7618V23.7774V23.793V23.8086V23.8243V23.84V23.8557V23.8715V23.8872V23.9031V23.9189V23.9348V23.9507V23.9666V23.9826V23.9986V24.0146V24.0307V24.0468V24.0629V24.079V24.0952V24.1114V24.1276V24.1439V24.1601V24.1764V24.1928V24.2091V24.2255V24.2419V24.2583V24.2747V24.2912V24.3077V24.3242V24.3407V24.3573V24.3738V24.3904V24.4071V24.4237V24.4403V24.457V24.4737V24.4904V24.5072V24.5239V24.5407V24.5575V24.5743V24.5911V24.6079V24.6248V24.6416V24.6585V24.6754V24.6923V24.7092V24.7262V24.7431V24.7601V24.7771V24.7941V24.8111V24.8281V24.8451V24.8622V24.8792V24.8963V24.9133V24.9304V24.9475V24.9646V24.9817V24.9988V25.0159V25.0331V25.0502V25.0674V25.0845V25.1017V25.1188V25.136V25.1532V25.1704V25.1875V25.2047V25.2219V25.2391V25.2563V25.2735V25.2907V25.3079V25.3251V25.3424V25.3596V25.3768V25.394V25.4112V25.4284V25.4456V25.4628V25.48V25.4973V25.5145V25.5317V25.5489V25.5661V25.5833V25.6005V25.6176V25.6348V25.652V25.6692V25.6863V25.7035V25.7207V25.7378V25.755V25.7721V25.7892V25.8063V25.8234V25.8406V25.8576V25.8747V25.8918V25.9089V25.9259V25.943V25.96V25.977V25.994V26.011V26.028V26.045V26.062V26.0789V26.0958V26.1128V26.1297V26.1466V26.1634V26.1803V26.1971V26.214V26.2308V26.2476V26.2644V26.2811V26.2979V26.3146V26.3313V26.348V26.3646V26.3813V26.3979V26.4145V26.4311V26.4477V26.4642V26.4808V26.4973V26.5137V26.5302V26.5466V26.563V26.5794V26.5958V26.6121V26.6284V26.6447V26.661V26.6772V26.6934V26.7096V26.7258V26.7419V26.758V26.7741V26.7901V26.8061V26.8221V26.8381V26.854V26.8699V26.8858V26.9016V26.9174V26.9332V26.949V26.9647V26.9804V26.996V27.0116V27.0272V27.0428V27.0583V27.0737V27.0892V27.1046V27.12V27.1353V27.1506V27.1659V27.1811V27.1963V27.2115V27.2266V27.2417V27.2567V27.2717V27.2867V27.3016V27.3165V27.3313V27.3461V27.3609V27.3756V27.3903V27.4049V27.4195V27.434V27.4485V27.463V27.4774V27.4918V27.5061V27.5204V27.5346V27.5488V27.563V27.5771V27.5912V27.6052V27.6191V27.633V27.6469V27.6607V27.6745V27.6882V27.7019V27.7155V27.7291V27.7426V27.7561V27.7695V27.7829V27.7962V27.8095V27.8227V27.8358V27.8489V27.862V27.875V27.8879V27.9008V27.9137V27.9264V27.9392V27.9518V27.9644V27.977V27.9895V28.0019V28.0143V28.0267V28.0389V28.0511V28.0633V28.0754V28.0874V28.0994V28.1113V28.1232V28.1349V28.1467V28.1583V28.1699V28.1815V28.193V28.2044V28.2157V28.227V28.2383V28.2494V28.2605V28.2715V28.2825V28.2934V28.3042V28.315V28.3257V28.3363V28.3469V28.3574V28.3678V28.3782V28.3885V28.3987V28.4089V28.4189V28.429V28.4389V28.4488V28.4586V28.4683V28.478V28.4875V28.497V28.5065V28.5158V28.5251V28.5344V28.5435V28.5526V28.5615V28.5705V28.5793V28.5881V28.5968V28.6054V28.6139V28.6223V28.6307V28.639V28.6472V28.6554V28.6634V28.6714V28.6793V28.6872V28.6949V28.7026V28.7101V28.7176V28.725V28.7324V28.7396V28.7468V28.7539V28.7609V28.7678V28.7746V28.7814V28.788V28.7946V28.8011V28.8075V28.8138V28.82V28.8262V28.8322V28.8382V28.8441V28.8499V28.8556V28.8612V28.8667V28.8721V28.8775V28.8827V28.8879V28.8929V28.8979V28.9028V28.9076V28.9123V28.9169V28.9214V28.9258V28.9301V28.9344V28.9385V28.9425V28.9465V28.9503V28.9541V28.9577V28.9613V28.9647V28.9681V28.9714V28.9745V28.9776V28.9806V28.9834V28.9862V28.9889V28.9914V28.9939V28.9963V28.9985V29.0007V29.0028V29.0047V29.0066V29.0083V29.01V29.0115V29.013V29.0143V29.0155V29.0167V29.0177V29.0186V29.0194V29.0201V29.0207V29.0212V29.0216V29.0218V29.022L25.6999 29.022Z" stroke="#E5E5E5" stroke-width="0.7"/>
</g>
<circle id="Ellipse 20" cx="20.3308" cy="19.6692" r="19.1692" stroke="white"/>
</g>
</svg>
