<svg width="24" height="24" viewBox="0 0 24 24" fill="none" xmlns="http://www.w3.org/2000/svg">
<g id="material-symbols:location-on">
<path id="Vector" d="M12.2 22.313L11.5519 21.7616C9.09826 19.6737 7.22207 17.6986 5.96094 15.8345C4.70176 13.9733 4.00071 12.1479 4 10.3804L4 10.38C4 7.89453 4.81055 5.81945 6.49381 4.26733C8.11934 2.76845 10.0351 2 12.2 2C14.3654 2 16.2815 2.76839 17.9071 4.26733C19.5904 5.81947 20.4006 7.89458 20.4 10.38L12.2 22.313ZM12.2 22.313L12.848 21.7616M12.2 22.313L12.848 21.7616M12.848 21.7616C15.3012 19.6742 17.1773 17.6992 18.439 15.8346C19.6987 13.973 20.3999 12.1475 20.4 10.3803L12.848 21.7616ZM12.2 9.4L12.2012 9.4C12.4272 9.39972 12.5968 9.4685 12.7637 9.63541C12.9306 9.80235 13 9.97258 13 10.2L13 10.2012C13.0003 10.4272 12.9315 10.5968 12.7646 10.7637C12.5977 10.9306 12.4274 11 12.2 11L12.1988 11C11.9728 11.0003 11.8032 10.9315 11.6363 10.7646L10.9292 11.4717L11.6363 10.7646C11.4694 10.5977 11.4 10.4274 11.4 10.2L11.4 10.1988C11.3997 9.97275 11.4685 9.80321 11.6354 9.63631C11.8023 9.46937 11.9726 9.4 12.2 9.4Z" stroke="#F34509" stroke-width="2"/>
</g>
</svg>
