<svg width="24" height="24" viewBox="0 0 24 24" fill="none" xmlns="http://www.w3.org/2000/svg">
<g id="mdi-light:email">
<path id="Vector" d="M3.38919 6.09508L3.22142 6.24311C3.22501 6.23948 3.22862 6.23585 3.23223 6.23223C3.35288 6.11158 3.48459 6.00454 3.62498 5.91209C3.54289 5.96784 3.46418 6.02891 3.38919 6.09508ZM2.5 8C2.5 7.8198 2.51945 7.64161 2.5572 7.46823C2.5208 7.63915 2.5 7.81849 2.5 8ZM3.40212 6.86054L3.10639 6.66868L3.44853 6.88989L11.2285 11.9199L11.5 12.0954L11.7715 11.9199L19.5515 6.88989L19.8937 6.6686L19.5979 6.86054L11.5 12.114L3.40212 6.86054ZM20.5 8C20.5 7.81849 20.4792 7.63916 20.4428 7.46824C20.4805 7.64161 20.5 7.8198 20.5 8ZM19.7678 6.23223C19.7714 6.23585 19.775 6.23947 19.7786 6.24311L19.6108 6.09508C19.5358 6.02891 19.4571 5.96784 19.375 5.91209C19.5154 6.00454 19.6471 6.11158 19.7678 6.23223Z" fill="#F34509" stroke="#F34509"/>
</g>
</svg>
