<svg width="41" height="40" viewBox="0 0 41 40" fill="none" xmlns="http://www.w3.org/2000/svg">
<g id="youtube icon">
<path id="Ellipse 19" d="M40.1013 19.6692C40.1013 30.2518 31.4425 38.8384 20.7517 38.8384C10.0608 38.8384 1.40198 30.2518 1.40198 19.6692C1.40198 9.08665 10.0608 0.5 20.7517 0.5C31.4425 0.5 40.1013 9.08665 40.1013 19.6692Z" stroke="white"/>
<path id="Vector" d="M19.6753 23.2891L19.6746 23.2895C18.9782 23.6722 18.0386 23.2153 18.0386 22.3569V17.7473C18.0386 17.7472 18.0386 17.7471 18.0386 17.747C18.0386 17.7466 18.0386 17.7463 18.0386 17.746C18.0387 17.554 18.0917 17.3668 18.1903 17.2033L19.6753 23.2891ZM19.6753 23.2891L23.852 20.9839M19.6753 23.2891L23.852 20.9839M23.852 20.9839C24.018 20.8926 24.1587 20.7595 24.2577 20.5958L23.8299 20.337M23.852 20.9839L23.8299 20.337M23.8299 20.337L24.2577 20.5958C24.3569 20.4319 24.41 20.2441 24.41 20.0515C24.41 19.8589 24.3569 19.671 24.2577 19.5072L23.8299 19.7659V20.337ZM19.6753 16.8148L23.852 19.119C23.8521 19.1191 23.8521 19.1191 23.8522 19.1191L23.8525 19.1193L23.611 19.5571L19.6753 16.8148ZM19.6753 16.8148C19.6753 16.8148 19.6753 16.8148 19.6753 16.8148C19.5097 16.7234 19.3235 16.6761 19.1352 16.6762C18.9469 16.6762 18.7607 16.7236 18.5951 16.815L18.8368 17.2527M19.6753 16.8148L18.8368 17.2527M18.8368 17.2527L18.5951 16.815C18.4294 16.9065 18.289 17.0397 18.1903 17.2033L18.8368 17.2527ZM26.7257 13.2182L26.7264 13.2183C27.5022 13.275 28.2286 13.5914 28.7788 14.1066C29.3282 14.6211 29.6665 15.3003 29.7404 16.0232C29.7404 16.0236 29.7405 16.0241 29.7405 16.0245L29.7798 16.424L29.8538 17.2818C29.8539 17.2825 29.8539 17.2832 29.854 17.2839C29.9229 18.172 29.9736 19.1348 29.9736 20.0515C29.9736 20.9681 29.9229 21.9309 29.854 22.819C29.8539 22.8197 29.8539 22.8204 29.8538 22.8211L29.7799 23.6786C29.7798 23.6792 29.7798 23.6798 29.7797 23.6803C29.7669 23.8176 29.7543 23.9487 29.7407 24.0763L29.7405 24.0784C29.6669 24.802 29.3284 25.4817 28.7784 25.9966C28.2281 26.5118 27.5015 26.8281 26.7255 26.8847L26.7252 26.8847L25.9134 26.9443L25.9097 26.9446L25.0206 27.0031L24.0688 27.057L23.0751 27.1024C23.0747 27.1024 23.0744 27.1025 23.074 27.1025C22.2258 27.1377 21.3768 27.1559 20.5278 27.1571C19.6787 27.1559 18.8298 27.1377 17.9815 27.1025C17.9812 27.1025 17.9808 27.1024 17.9805 27.1024L16.9868 27.057L16.036 27.0031L15.1468 26.9446L15.1431 26.9443L14.3292 26.8847L14.3292 26.8847C13.5534 26.8279 12.827 26.5116 12.2768 25.9963L11.935 26.3613L12.2768 25.9963C11.7273 25.4817 11.3889 24.8023 11.3151 24.0792C11.3151 24.079 11.3151 24.0787 11.3151 24.0785L11.2757 23.679L11.2016 22.8193C11.2016 22.8189 11.2015 22.8185 11.2015 22.8181C11.1266 21.8971 11.0867 20.9739 11.0819 20.0502C11.082 19.1339 11.1327 18.1716 11.2016 17.2839L11.2758 16.4226C11.2886 16.2853 11.3013 16.1542 11.3148 16.0266L11.3148 16.0266L11.3151 16.0245C11.3886 15.3012 11.7269 14.6216 12.2765 14.1069C12.8265 13.5916 13.5526 13.2752 14.3283 13.2183L14.3289 13.2182L15.143 13.1576L16.0337 13.0999L16.9857 13.0459L17.9795 13.0005C17.9798 13.0005 17.9802 13.0005 17.9805 13.0005C18.8292 12.9653 19.6786 12.947 20.5281 12.9458C21.37 12.9458 22.2348 12.9665 23.0743 13.0005C23.0747 13.0005 23.0751 13.0005 23.0756 13.0005L24.0688 13.0459L25.0199 13.0999L25.9106 13.1576L25.913 13.1577L26.7257 13.2182Z" stroke="white"/>
</g>
</svg>
