<svg width="57" height="57" viewBox="0 0 57 57" fill="none" xmlns="http://www.w3.org/2000/svg">
<g id="Group">
<path id="Vector" d="M22.8289 55.6734C22.1722 55.5409 21.6921 55.4437 21.2769 55.3612C21.1915 54.7281 21.1356 54.1567 21.0354 53.5943C20.9647 53.1908 20.6879 52.9169 20.2786 52.9316C19.4393 52.964 18.5734 52.9346 17.7724 53.1378C14.9835 53.8505 12.2212 54.6662 9.44113 55.4113C7.54458 55.9208 5.63036 56.3713 3.64547 56.1799C2.14943 56.0356 0.956723 55.3701 0.411906 53.877C-0.124076 52.4074 0.167474 51.0763 1.2306 49.9278C2.5146 48.5437 4.14905 47.6896 5.83946 46.9387C6.83779 46.494 7.86853 46.1229 8.8757 45.7224C8.67839 45.157 8.40746 44.5798 8.28082 43.9731C7.90682 42.2032 8.34856 40.6188 9.52654 39.2523C13.3403 34.8231 17.1628 30.3998 20.9824 25.9765C24.5252 21.8712 28.0709 17.7689 31.599 13.6518C31.7992 13.4192 31.9288 13.0452 31.9288 12.736C31.8699 5.55321 37.7598 -0.0245389 44.9249 0.452544C50.5233 0.826553 55.2646 5.32055 55.939 10.8954C56.7401 17.5186 52.3845 23.3172 45.7819 24.395C45.1958 24.4893 44.5921 24.5511 44.0031 24.5187C43.4141 24.4863 43.0018 24.6866 42.5689 25.0606C34.2966 32.2198 26.0094 39.3613 17.7371 46.5205C16.6946 47.4216 15.5931 48.1402 14.1884 48.2816C12.8131 48.417 11.5644 48.0695 10.4248 47.2921C10.2716 47.189 10.0301 47.0889 9.87404 47.136C7.50041 47.8781 5.19451 48.7793 3.189 50.29C2.49988 50.8083 1.82548 51.3767 1.77836 52.3574C1.71947 53.5736 2.3703 54.3806 3.57773 54.5514C5.21513 54.7811 6.79951 54.4365 8.35739 54.0242C11.27 53.2526 14.159 52.3898 17.0745 51.6329C17.9756 51.4003 18.9327 51.2972 19.8663 51.2942C21.648 51.2884 22.393 51.9539 22.714 53.7356C22.8142 54.3364 22.7877 54.9519 22.8289 55.6734ZM32.7828 14.7591C32.6768 14.8769 32.5708 14.9859 32.4707 15.1037C27.1933 21.2174 21.916 27.3282 16.6386 33.4419C14.692 35.6978 12.7483 37.9565 10.7929 40.2065C9.79159 41.3609 9.45586 42.6685 9.93883 44.1174C10.8223 46.7649 14.0971 47.5836 16.3441 45.6282C24.6518 38.3924 33.0096 31.2155 41.3527 24.0181C41.494 23.8973 41.6707 23.8178 41.7679 23.756C38.711 20.6932 35.7631 17.7424 32.7828 14.7591ZM48.4618 21.9242C48.6238 21.8506 48.7298 21.8064 48.8299 21.7534C50.75 20.7315 52.2166 19.259 53.2562 17.3507C53.4299 17.0326 53.3622 16.8501 53.1236 16.6086C48.7033 12.2 44.2858 7.78548 39.8802 3.36216C39.621 3.103 39.4208 3.04999 39.0939 3.23258C37.2062 4.26921 35.7543 5.72401 34.7265 7.62057C34.5528 7.94157 34.6117 8.1271 34.859 8.35386C35.2831 8.74259 35.6777 9.16372 36.0871 9.57012C40.0804 13.5635 44.0738 17.5568 48.0701 21.5502C48.1997 21.6827 48.3381 21.8064 48.4618 21.9242ZM41.3114 2.3491C45.6081 6.64578 49.8489 10.8895 54.1249 15.1626C54.9642 11.3724 54.2044 7.96513 51.4391 5.15858C48.6238 2.30198 45.1723 1.49506 41.3114 2.3491ZM46.6889 22.6899C42.3569 18.3579 38.1044 14.1054 33.79 9.791C33.7076 10.7834 33.6045 11.7936 33.5574 12.8037C33.5485 13.0128 33.6958 13.2808 33.8519 13.4398C36.8999 16.5084 39.9597 19.5653 43.0225 22.6192C43.152 22.7488 43.3376 22.9167 43.4878 22.9108C44.5686 22.8578 45.6435 22.7665 46.6889 22.6899Z" fill="white"/>
<path id="Vector_2" d="M33.9109 20.3956C34.6324 20.4368 35.4275 20.8697 35.8634 21.8151C36.2933 22.7486 36.2462 23.7116 35.5394 24.4538C33.8196 26.259 32.0585 28.0319 30.2444 29.7458C29.2902 30.6499 27.7736 30.4821 26.8606 29.5279C25.9183 28.5443 25.8918 27.0512 26.8665 26.044C28.2948 24.5657 29.7644 23.1285 31.2162 21.6767C31.4342 21.4587 31.6462 21.2379 31.8759 21.0347C32.3677 20.5959 32.9449 20.375 33.9109 20.3956ZM28.6041 28.8241C28.9368 28.6385 29.2254 28.5472 29.4169 28.3588C31.016 26.7832 32.6063 25.2018 34.1759 23.5938C34.3644 23.3995 34.5264 23.0255 34.4734 22.784C34.4086 22.4983 34.1494 22.1744 33.8873 22.0301C33.4956 21.8151 33.1187 22.0242 32.8095 22.3363C31.4165 23.7381 30.0176 25.1311 28.6217 26.53C28.4038 26.7479 28.1181 26.9334 27.9974 27.1955C27.8649 27.4782 27.7765 27.8758 27.8767 28.1438C27.9738 28.4147 28.3302 28.5855 28.6041 28.8241Z" fill="white"/>
</g>
</svg>
