<svg width="30" height="30" viewBox="0 0 30 30" fill="none" xmlns="http://www.w3.org/2000/svg">
<g id="Group 12655">
<path id="Rectangle 3409" d="M0 2C0 0.89543 0.895431 0 2 0H28C29.1046 0 30 0.895431 30 2V30H0V2Z" fill="#EB9231"/>
<path id="Vector" d="M19.796 17.2C19.884 16.474 19.95 15.748 19.95 15C19.95 14.252 19.884 13.526 19.796 12.8H23.514C23.69 13.504 23.8 14.241 23.8 15C23.8 15.759 23.69 16.496 23.514 17.2M17.849 23.316C18.509 22.095 19.015 20.775 19.367 19.4H22.612C21.5463 21.2351 19.8555 22.6252 17.849 23.316ZM17.574 17.2H12.426C12.316 16.474 12.25 15.748 12.25 15C12.25 14.252 12.316 13.515 12.426 12.8H17.574C17.673 13.515 17.75 14.252 17.75 15C17.75 15.748 17.673 16.474 17.574 17.2ZM15 23.756C14.087 22.436 13.35 20.973 12.899 19.4H17.101C16.65 20.973 15.913 22.436 15 23.756ZM10.6 10.6H7.388C8.44274 8.75994 10.1323 7.36764 12.14 6.684C11.48 7.905 10.985 9.225 10.6 10.6ZM7.388 19.4H10.6C10.985 20.775 11.48 22.095 12.14 23.316C10.1365 22.6248 8.44933 21.2345 7.388 19.4ZM6.486 17.2C6.31 16.496 6.2 15.759 6.2 15C6.2 14.241 6.31 13.504 6.486 12.8H10.204C10.116 13.526 10.05 14.252 10.05 15C10.05 15.748 10.116 16.474 10.204 17.2M15 6.233C15.913 7.553 16.65 9.027 17.101 10.6H12.899C13.35 9.027 14.087 7.553 15 6.233ZM22.612 10.6H19.367C19.0227 9.2376 18.5129 7.92249 17.849 6.684C19.873 7.377 21.556 8.774 22.612 10.6ZM15 4C8.917 4 4 8.95 4 15C4 17.9174 5.15893 20.7153 7.22183 22.7782C8.24327 23.7996 9.4559 24.6099 10.7905 25.1627C12.1251 25.7155 13.5555 26 15 26C17.9174 26 20.7153 24.8411 22.7782 22.7782C24.8411 20.7153 26 17.9174 26 15C26 13.5555 25.7155 12.1251 25.1627 10.7905C24.6099 9.4559 23.7996 8.24327 22.7782 7.22183C21.7567 6.20038 20.5441 5.39013 19.2095 4.83733C17.8749 4.28452 16.4445 4 15 4Z" fill="white"/>
</g>
</svg>
